<svg id="Layer_1" enable-background="new 0 0 512 512" height="512" viewBox="0 0 512 512" width="512" xmlns="http://www.w3.org/2000/svg"><g><g><g><g id="XMLID_1490_"><g id="XMLID_1491_"><g id="XMLID_1492_"><g id="XMLID_1493_"><g id="XMLID_1494_"><g id="XMLID_1495_"><g id="XMLID_1496_"><g id="XMLID_1497_"><g id="XMLID_1498_"><g id="XMLID_1499_"><g id="XMLID_1500_"><g id="XMLID_1501_"><g id="XMLID_1502_"><g id="XMLID_1503_"><g id="XMLID_1504_"><circle cx="256" cy="256" fill="#7c4a3e" r="256"/></g></g></g></g></g></g></g></g></g></g></g></g></g></g></g></g></g><path d="m510.802 280.78-254.802-256.043-32.527 74.895-71.143 55.115 60.806 60.806-96.175 44.954 41.471 43.255-73.861 65.804 140.579 140.578c10.115 1.215 20.407 1.856 30.85 1.856 133.024 0 242.337-101.464 254.802-231.22z" fill="#613526"/><g><path d="m210.917 338.341h90.166v132.091h-90.166z" fill="#db8435"/><path d="m256 338.34h45.08v132.09h-45.08z" fill="#bf6726"/><g><path d="m256 138.073-171.427 231.494h342.854z" fill="#ffdc7b"/><path d="m427.43 369.57h-171.43v-231.5l12.35 16.68 78.32 105.76z" fill="#ffc239"/><path d="m256 86.143-139.038 174.364h278.076z" fill="#ffc239"/><path d="m395.04 260.51h-139.04v-174.37l54.71 68.61z" fill="#f4a416"/><path d="m256 24.737-103.669 130.01h207.338z" fill="#f4a416"/><g><path d="m359.67 154.75h-103.67v-130.01z" fill="#bf6726"/></g></g></g></g></svg>