<?xml version="1.0" encoding="utf-8"?>
<!-- Generator: Adobe Illustrator 16.0.0, SVG Export Plug-In . SVG Version: 6.00 Build 0)  -->
<!DOCTYPE svg PUBLIC "-//W3C//DTD SVG 1.1//EN" "http://www.w3.org/Graphics/SVG/1.1/DTD/svg11.dtd">
<svg version="1.1" id="Livello_1" xmlns="http://www.w3.org/2000/svg" xmlns:xlink="http://www.w3.org/1999/xlink" x="0px" y="0px"
	 width="1000px" height="1000px" viewBox="0 0 1000 1000" enable-background="new 0 0 1000 1000" xml:space="preserve">
<g>
	<defs>
		<rect id="SVGID_1_" width="1000" height="1000"/>
	</defs>
	<clipPath id="SVGID_2_">
		<use xlink:href="#SVGID_1_"  overflow="visible"/>
	</clipPath>
	<g clip-path="url(#SVGID_2_)">
		<defs>
			<rect id="SVGID_3_" width="1000" height="1000"/>
		</defs>
		<clipPath id="SVGID_4_">
			<use xlink:href="#SVGID_3_"  overflow="visible"/>
		</clipPath>
		<path clip-path="url(#SVGID_4_)" fill="none" d="M1000,500c0,174.55-89.44,328.21-225,417.64C696.11,969.7,601.59,1000,500,1000
			s-196.11-30.3-275-82.36C89.44,828.21,0,674.55,0,500C0,223.86,223.86,0,500,0C776.14,0,1000,223.86,1000,500"/>
	</g>
	<g clip-path="url(#SVGID_2_)">
		<defs>
			<rect id="SVGID_5_" width="1000" height="1000"/>
		</defs>
		<clipPath id="SVGID_6_">
			<use xlink:href="#SVGID_5_"  overflow="visible"/>
		</clipPath>
		<path clip-path="url(#SVGID_6_)" d="M598.189,642.35H401.811c-9.863,0-19.451,3.255-27.276,9.258l-54.991,42.189
			c-23.379,17.937-23.379,53.169,0,71.105l54.991,42.189c7.825,6.004,17.413,9.258,27.276,9.258h196.379
			c9.863,0,19.451-3.254,27.276-9.258l54.991-42.189c23.379-17.937,23.379-53.169,0-71.105l-54.991-42.189
			C617.641,645.604,608.053,642.35,598.189,642.35"/>
	</g>
	<g clip-path="url(#SVGID_2_)">
		<defs>
			<rect id="SVGID_7_" width="1000" height="1000"/>
		</defs>
		<clipPath id="SVGID_8_">
			<use xlink:href="#SVGID_7_"  overflow="visible"/>
		</clipPath>
		<path clip-path="url(#SVGID_8_)" fill="#D7AC97" d="M276.739,473.239c-8.903-33.954,1.856-66.192,24.032-72.007
			c22.175-5.815,47.369,16.997,56.272,50.951c8.904,33.954-1.856,66.192-24.031,72.007
			C310.836,530.005,285.642,507.193,276.739,473.239"/>
		<path clip-path="url(#SVGID_8_)" fill="#EDC6AF" d="M641.786,445.721c4.889-34.76,27.255-60.35,49.956-57.157
			c22.702,3.192,37.143,33.959,32.254,68.719c-4.889,34.759-27.255,60.35-49.956,57.157
			C651.338,511.247,636.897,480.48,641.786,445.721"/>
	</g>
	<rect x="431.5" y="582.35" clip-path="url(#SVGID_2_)" fill="#EDC6AF" width="137" height="234"/>
	<rect x="431.5" y="576.35" clip-path="url(#SVGID_2_)" fill="#D7AC97" width="68.5" height="234"/>
	<g clip-path="url(#SVGID_2_)">
		<defs>
			<rect id="SVGID_9_" width="1000" height="1000"/>
		</defs>
		<clipPath id="SVGID_10_">
			<use xlink:href="#SVGID_9_"  overflow="visible"/>
		</clipPath>
		<path clip-path="url(#SVGID_10_)" fill="#EDC6AF" d="M300,428.856c0-139.176,119.57-214,200-214c80.43,0,200,74.824,200,214
			s-89.543,252-200,252S300,568.032,300,428.856"/>
		<path clip-path="url(#SVGID_10_)" fill="#D7AC97" d="M500,214.5v466c-111.238,0-201.409-112.82-201.409-252
			C298.591,289.32,419.003,214.5,500,214.5"/>
		<g opacity="0.2" clip-path="url(#SVGID_10_)">
			<g>
				<defs>
					<rect id="SVGID_11_" x="312.139" y="512.394" width="377.5" height="168.106"/>
				</defs>
				<clipPath id="SVGID_12_">
					<use xlink:href="#SVGID_11_"  overflow="visible"/>
				</clipPath>
				<path clip-path="url(#SVGID_12_)" fill="#78665B" d="M689.639,512.394C651.555,633.272,570.256,680.5,499.881,680.5
					c-81.465-2.626-153.305-55.976-187.742-158.581c41.323,32.295,127.34,41.114,186.214,41.114
					C549.72,563.033,644.513,551.126,689.639,512.394"/>
			</g>
		</g>
		<path clip-path="url(#SVGID_10_)" fill="#766357" d="M378.327,387.756c0.948-11.371,20.877-7.768,45.63-5.39
			c34.227,3.288,44.583,6.824,44.108,12.871c-0.52,6.612-20.85,7.456-45.631,5.39C397.654,398.561,377.62,396.229,378.327,387.756"
			/>
		<g opacity="0.502" clip-path="url(#SVGID_10_)">
			<g>
				<defs>
					<rect id="SVGID_13_" x="535.026" y="381.072" width="89.947" height="19.363"/>
				</defs>
				<clipPath id="SVGID_14_">
					<use xlink:href="#SVGID_13_"  overflow="visible"/>
				</clipPath>
				<path clip-path="url(#SVGID_14_)" d="M624.962,388.608c0.583,11.396-19.649,10.492-44.498,11.449
					c-34.359,1.323-45.095-0.794-45.434-6.851c-0.369-6.621,19.664-10.18,44.498-11.449
					C604.362,380.487,624.528,380.116,624.962,388.608"/>
			</g>
		</g>
		<path clip-path="url(#SVGID_10_)" d="M272.028,327.907c-14.515-4.297-22.603-23.073-15.752-36.572
			c6.85-13.5,26.779-18.059,38.817-8.882"/>
	</g>
	<g clip-path="url(#SVGID_2_)">
		<defs>
			<rect id="SVGID_15_" width="1000" height="1000"/>
		</defs>
		<clipPath id="SVGID_16_">
			<use xlink:href="#SVGID_15_"  overflow="visible"/>
		</clipPath>
		<path clip-path="url(#SVGID_16_)" d="M775,881.08v36.56C696.11,969.7,601.59,1000,500,1000s-196.11-30.3-275-82.36v-36.56
			c0-84.9,68.83-153.729,153.73-153.729H431l69,71.999l69-71.999h52.27C706.17,727.351,775,796.18,775,881.08"/>
		<path clip-path="url(#SVGID_16_)" fill="none" stroke="#000000" stroke-miterlimit="10" d="M775,881.08v36.56
			C696.11,969.7,601.59,1000,500,1000s-196.11-30.3-275-82.36v-36.56c0-84.9,68.83-153.729,153.73-153.729H431l69,71.999l69-71.999
			h52.27C706.17,727.351,775,796.18,775,881.08z"/>
	</g>
	<g clip-path="url(#SVGID_2_)">
		<defs>
			<rect id="SVGID_17_" width="1000" height="1000"/>
		</defs>
		<clipPath id="SVGID_18_">
			<use xlink:href="#SVGID_17_"  overflow="visible"/>
		</clipPath>
		<path clip-path="url(#SVGID_18_)" d="M349.091,244.751c-20.146-18-14.354-56.39,10.207-67.644
			c24.561-11.253,57.42,9.427,57.897,36.439c-17.919-14.375-8.231-49.281,14.534-52.363c22.766-3.082,41.387,27.991,27.935,46.613
			c-11.392-22.187,7.577-53.297,32.517-53.332c24.941-0.035,43.996,31.023,32.666,53.242c-11.502-26.968,16.359-61.38,45.13-55.743
			c28.771,5.638,41.584,48.02,20.755,68.653c-7.822-18.735,3.675-43.011,23.127-48.828c19.451-5.817,42.389,8.16,46.137,28.114
			c3.748,19.954-12.556,41.302-32.792,42.938c-0.407-22.957,32.217-38.125,49.508-23.017c17.291,15.108,6.636,49.471-16.17,52.147
			c4.102-24.494,42.141-33.79,57.077-13.948c14.936,19.843-4.52,53.826-29.192,50.991c10.626-19.729,45.871-16.48,52.713,4.859
			c6.841,21.339-19.946,44.475-40.063,34.602c16.956-4.075,35.251,12.91,32.445,30.122c-2.806,17.212-25.548,27.508-40.333,18.259
			c-23.43-0.871-45.442-17.636-52.509-39.992s1.312-48.727,19.985-62.905c12.742,19.982-6.798,51.018-30.325,48.165
			c-23.527-2.854-35.083-37.66-17.934-54.018c13.329,20.259-5.531,52.333-29.714,50.534c-24.184-1.799-38.091-36.31-21.913-54.374
			c12.54,12.799,11.174,36.403-2.76,47.668s-37.302,7.657-47.188-7.286c-9.888-14.942-4.071-37.861,11.744-46.281
			c12.338,22.036-8.339,54.078-33.5,51.916c-25.161-2.162-40.068-37.261-24.153-56.869c12.829,13.043,11.682,37.053-2.332,48.814
			c-14.014,11.76-37.859,8.723-48.478-6.175c-10.619-14.899-5.71-38.43,9.979-47.84c15.312,13.264,16.535,39.65,2.517,54.274
			c-14.018,14.623-40.434,14.515-54.332-0.222c-13.898-14.738-12.46-41.114,2.96-54.252c14.222,19.672-4.153,52.567-28.361,50.772
			s-33.531-33.04-16.563-50.399c10.774,13.431-2.692,32.484-19.416,36.583c-16.724,4.1-34.75-9.177-38.258-26.035
			c-3.508-16.857,5.839-34.822,20.332-44.12C307.463,225.516,326.04,224.089,349.091,244.751"/>
		<path clip-path="url(#SVGID_18_)" d="M310.384,292.989c-19.629-5.32-40.866,16.314-35.183,35.841
			c5.683,19.528,35.212,26.388,48.921,11.366c-16.219,0.033-33.382,4.749-43.997,17.011c-10.616,12.263-11.811,33.2,0.495,43.765
			c12.307,10.565,36.244,2.171,36.01-14.046c-13.198-2.812-25.636,14.251-18.921,25.955c6.715,11.704,27.722,9.578,31.957-3.234
			c3.194-9.666,6.388-19.332,9.582-28.997c9.802-16.528,9.815-38.4,0.032-54.938c-3.692,15.298,11.974,31.729,27.431,28.77
			c15.457-2.96,23.945-24.015,14.863-36.868c-12.051,4.91-9.592,25.42,2.365,30.556c11.957,5.135,26.317-2.33,33.306-13.306
			c6.99-10.977,8.433-24.47,9.696-37.422"/>
		<path clip-path="url(#SVGID_18_)" d="M311.892,355.026c6.434,23.214,37.733,35.269,58.077,22.367
			c20.343-12.902,22.783-46.353,4.527-62.07"/>
		<path clip-path="url(#SVGID_18_)" d="M291.493,377.4c-23.066,6.917-49.373-16.114-45.567-39.892
			c3.806-23.778,35.988-37.446,55.743-23.675"/>
		<path clip-path="url(#SVGID_18_)" d="M665.393,378.647c-7.71,7.105,3.838,38.728,11.055,46.333s20.758,6.861,28.258-0.467
			c7.499-7.327,6.557-34.87-0.879-42.262C703.356,381.33,691.887,377.32,665.393,378.647"/>
		<g opacity="0.6" clip-path="url(#SVGID_18_)">
			<g>
				<defs>
					<rect id="SVGID_19_" x="544" y="412.5" width="72" height="35"/>
				</defs>
				<clipPath id="SVGID_20_">
					<use xlink:href="#SVGID_19_"  overflow="visible"/>
				</clipPath>
				<path clip-path="url(#SVGID_20_)" fill="#FFFFFF" d="M544,430c0,0,16.118-17.5,36-17.5s36,17.5,36,17.5s-16.118,17.5-36,17.5
					S544,430,544,430"/>
			</g>
		</g>
		<path clip-path="url(#SVGID_18_)" fill="#462E1E" d="M561.091,430c0-9.665,8.466-17.5,18.909-17.5s18.909,7.835,18.909,17.5
			s-8.466,17.5-18.909,17.5S561.091,439.665,561.091,430"/>
		<path clip-path="url(#SVGID_18_)" d="M326.874,265.377c-14.476-10.563-18.017-33.36-7.427-47.816
			c10.59-14.457,33.393-17.956,47.83-7.34c0.9-1.244,1.8-2.489,2.701-3.733"/>
		
			<path clip-path="url(#SVGID_18_)" fill="none" stroke="#BA876E" stroke-width="6" stroke-linecap="round" stroke-linejoin="round" stroke-miterlimit="10" d="
			M468.554,500.541c-22.037,43.161,83.091,46.227,63.499-0.541"/>
		<path clip-path="url(#SVGID_18_)" fill="none" stroke="#000000" stroke-width="2" stroke-miterlimit="10" d="M475.155,520.853
			c-3.831-2.379-9.554-0.638-11.388,3.464c-1.834,4.103,0.668,9.568,4.978,10.877c2.96,0.898,6.999-0.619,8.29-3.15"/>
		
			<path clip-path="url(#SVGID_18_)" fill="none" stroke="#BA876E" stroke-width="10" stroke-linecap="round" stroke-linejoin="round" stroke-miterlimit="10" d="
			M438.909,585.35c23.388,34.239,88.797,35.702,114.591,1.508"/>
		<path clip-path="url(#SVGID_18_)" d="M569.5,429.657c0-5.799,4.701-10.5,10.5-10.5s10.5,4.701,10.5,10.5s-4.701,10.5-10.5,10.5
			S569.5,435.456,569.5,429.657"/>
		<g opacity="0.6" clip-path="url(#SVGID_18_)">
			<g>
				<defs>
					<rect id="SVGID_21_" x="384" y="412.5" width="72" height="35"/>
				</defs>
				<clipPath id="SVGID_22_">
					<use xlink:href="#SVGID_21_"  overflow="visible"/>
				</clipPath>
				<path clip-path="url(#SVGID_22_)" fill="#FFFFFF" d="M384,430c0,0,16.118-17.5,36-17.5s36,17.5,36,17.5s-16.118,17.5-36,17.5
					S384,430,384,430"/>
			</g>
		</g>
		<path clip-path="url(#SVGID_18_)" fill="#462E1E" d="M401.091,430c0-9.665,8.466-17.5,18.909-17.5
			c10.444,0,18.909,7.835,18.909,17.5s-8.465,17.5-18.909,17.5C409.557,447.5,401.091,439.665,401.091,430"/>
		<path clip-path="url(#SVGID_18_)" d="M409.5,429.657c0-5.799,4.701-10.5,10.5-10.5s10.5,4.701,10.5,10.5s-4.701,10.5-10.5,10.5
			S409.5,435.456,409.5,429.657"/>
		<path clip-path="url(#SVGID_18_)" d="M462.403,622.624c0-1.572,1.275-2.848,2.847-2.848c1.572,0,2.847,1.275,2.847,2.848
			s-1.275,2.847-2.847,2.847C463.678,625.471,462.403,624.196,462.403,622.624"/>
		
			<circle clip-path="url(#SVGID_18_)" fill="none" stroke="#000000" stroke-width="3" stroke-miterlimit="10" cx="465.25" cy="622.624" r="2.847"/>
		<path clip-path="url(#SVGID_18_)" d="M531.653,622.624c0-1.572,1.274-2.848,2.847-2.848s2.847,1.275,2.847,2.848
			s-1.274,2.847-2.847,2.847S531.653,624.196,531.653,622.624"/>
		
			<circle clip-path="url(#SVGID_18_)" fill="none" stroke="#000000" stroke-width="3" stroke-miterlimit="10" cx="534.5" cy="622.624" r="2.847"/>
		<path clip-path="url(#SVGID_18_)" fill="none" stroke="#000000" stroke-width="3" stroke-miterlimit="10" d="M692.671,498.884
			c-5.691,2.219-8.469,9.869-5.526,15.223c2.943,5.354,10.891,7.109,15.814,3.493s5.627-11.725,1.398-16.135"/>
	</g>
</g>
</svg>
